<svg width="98" height="98" viewBox="0 0 98 98" fill="none" xmlns="http://www.w3.org/2000/svg">
<path d="M49 98C76.062 98 98 76.062 98 49C98 21.938 76.062 0 49 0C21.938 0 0 21.938 0 49C0 76.062 21.938 98 49 98Z" fill="#DF0E7C"/>
<path d="M56.9132 37.3922H48.7381C48.3409 37.3922 48.0189 37.7142 48.0189 38.1114V62.037C48.0189 62.4342 48.3409 62.7561 48.7381 62.7561H56.9132C57.3103 62.7561 57.6323 62.4342 57.6323 62.037V38.1114C57.6323 37.7142 57.3103 37.3922 56.9132 37.3922Z" fill="white"/>
<path d="M79.8186 50.5486C79.7148 50.414 79.6585 50.2488 79.6585 50.0788C79.6585 49.9088 79.7148 49.7435 79.8186 49.6089L88.2074 38.7639C88.3045 38.6385 88.3646 38.4884 88.3806 38.3305C88.3967 38.1727 88.3682 38.0135 88.2983 37.8711C88.2284 37.7287 88.1199 37.6087 87.9853 37.5249C87.8506 37.4411 87.6951 37.3967 87.5364 37.3968H78.9156C78.7859 37.397 78.658 37.4269 78.5417 37.4842C78.4254 37.5416 78.3238 37.6249 78.2447 37.7277L74.6741 42.3322C74.6027 42.4251 74.5108 42.5004 74.4056 42.5522C74.3004 42.604 74.1848 42.631 74.0675 42.631C73.9503 42.631 73.8346 42.604 73.7294 42.5522C73.6243 42.5004 73.5324 42.4251 73.4609 42.3322L69.895 37.7231C69.8159 37.6203 69.7143 37.537 69.598 37.4796C69.4817 37.4223 69.3537 37.3924 69.2241 37.3922H60.6078C60.4495 37.3929 60.2946 37.4379 60.1605 37.5219C60.0263 37.6059 59.9183 37.7257 59.8486 37.8678C59.7788 38.0099 59.7502 38.1686 59.7658 38.3261C59.7814 38.4836 59.8406 38.6337 59.9369 38.7593L68.3257 49.6043C68.4306 49.7385 68.4876 49.9039 68.4876 50.0742C68.4876 50.2445 68.4306 50.4099 68.3257 50.544L59.9369 61.3913C59.8404 61.5167 59.7809 61.6667 59.7652 61.8241C59.7495 61.9816 59.7782 62.1403 59.848 62.2823C59.9178 62.4243 60.026 62.544 60.1603 62.6277C60.2945 62.7115 60.4496 62.7559 60.6078 62.7561H69.2286C69.3581 62.7559 69.4858 62.7262 69.602 62.6693C69.7183 62.6123 69.82 62.5297 69.8996 62.4276L73.4655 57.8185C73.537 57.7255 73.6289 57.6502 73.734 57.5984C73.8392 57.5466 73.9549 57.5197 74.0721 57.5197C74.1894 57.5197 74.305 57.5466 74.4102 57.5984C74.5154 57.6502 74.6072 57.7255 74.6787 57.8185L78.2447 62.4276C78.3242 62.5297 78.426 62.6123 78.5422 62.6693C78.6585 62.7262 78.7862 62.7559 78.9156 62.7561H87.541C87.6993 62.7559 87.8543 62.7115 87.9886 62.6277C88.1229 62.544 88.231 62.4243 88.3008 62.2823C88.3707 62.1403 88.3993 61.9816 88.3836 61.8241C88.3679 61.6667 88.3084 61.5167 88.212 61.3913L79.8186 50.5486Z" fill="white"/>
<path d="M35.878 61.0191C35.8777 61.2473 35.9225 61.4733 36.0096 61.6842C36.0968 61.8951 36.2248 62.0867 36.3861 62.248C36.5475 62.4094 36.7391 62.5373 36.95 62.6245C37.1609 62.7117 37.3869 62.7564 37.6151 62.7561H43.7544C44.2151 62.7561 44.6569 62.5731 44.9827 62.2474C45.3085 61.9216 45.4915 61.4798 45.4915 61.0191V43.2696C45.4915 41.7108 44.8722 40.2159 43.77 39.1137C42.6678 38.0114 41.1728 37.3922 39.614 37.3922H30.7221C30.3058 37.3922 29.8936 37.4742 29.509 37.6336C29.1245 37.793 28.7751 38.0266 28.4808 38.321C28.1866 38.6155 27.9532 38.9651 27.7941 39.3498C27.635 39.7344 27.5533 40.1467 27.5536 40.563C27.5536 39.722 27.2195 38.9155 26.6249 38.3209C26.0303 37.7263 25.2238 37.3922 24.3828 37.3922H15.4909C14.7191 37.3922 13.955 37.5443 13.242 37.8396C12.5291 38.135 11.8813 38.568 11.3357 39.1138C10.7901 39.6596 10.3574 40.3075 10.0623 41.0206C9.76717 41.7337 9.61543 42.4979 9.61573 43.2696V61.0191C9.61543 61.2473 9.66015 61.4733 9.74734 61.6842C9.83452 61.8951 9.96246 62.0867 10.1238 62.248C10.2852 62.4094 10.4768 62.5373 10.6877 62.6245C10.8986 62.7117 11.1246 62.7564 11.3528 62.7561H17.4921C17.9528 62.7561 18.3946 62.5731 18.7204 62.2474C19.0462 61.9216 19.2292 61.4798 19.2292 61.0191V48.0626C19.2292 47.5962 19.4143 47.1489 19.7438 46.8189C20.0734 46.4889 20.5205 46.3032 20.9869 46.3026C21.4537 46.3026 21.9013 46.488 22.2314 46.8181C22.5615 47.1481 22.7469 47.5958 22.7469 48.0626V61.0191C22.7466 61.2473 22.7913 61.4733 22.8785 61.6842C22.9657 61.8951 23.0936 62.0867 23.255 62.248C23.4163 62.4094 23.6079 62.5373 23.8188 62.6245C24.0297 62.7117 24.2557 62.7564 24.4839 62.7561H30.6233C31.084 62.7561 31.5258 62.5731 31.8515 62.2474C32.1773 61.9216 32.3603 61.4798 32.3603 61.0191V48.0626C32.3603 47.5962 32.5454 47.1489 32.875 46.8189C33.2046 46.4889 33.6516 46.3032 34.118 46.3026C34.5848 46.3026 35.0325 46.488 35.3625 46.8181C35.6926 47.1481 35.878 47.5958 35.878 48.0626V61.0191Z" fill="white"/>
<path d="M60.6928 21.0191C60.0986 21.0183 59.5174 21.1934 59.0224 21.5222C58.0781 22.17 56.9623 22.5219 55.8172 22.5332H55.7436C55.713 22.5333 55.6828 22.5253 55.6562 22.51C55.6296 22.4947 55.6075 22.4726 55.5921 22.4461C55.5767 22.4195 55.5686 22.3894 55.5686 22.3587C55.5686 22.328 55.5767 22.2979 55.592 22.2713C56.1913 21.2577 57.0738 20.4415 58.1309 19.9231C58.6741 19.6489 59.1212 19.2162 59.413 18.6823C59.638 18.2706 59.7641 17.8122 59.7813 17.3434C59.7986 16.8745 59.7064 16.4081 59.5123 15.981C59.3181 15.5539 59.0273 15.1778 58.6627 14.8826C58.2981 14.5873 57.8698 14.3809 57.4116 14.2797C56.9535 14.1786 56.4781 14.1854 56.0231 14.2997C55.5681 14.414 55.1459 14.6326 54.7899 14.9382C54.434 15.2438 54.154 15.6281 53.9722 16.0606C53.7904 16.4931 53.7117 16.9619 53.7424 17.4301C53.8407 18.5472 53.6006 19.6681 53.0531 20.6468L52.9865 20.7617C52.9712 20.7885 52.9491 20.8107 52.9225 20.8262C52.8958 20.8416 52.8656 20.8498 52.8348 20.8498C52.804 20.8498 52.7738 20.8416 52.7471 20.8262C52.7205 20.8107 52.6984 20.7885 52.6832 20.7617C52.1057 19.7357 51.8406 18.5634 51.9203 17.3887C51.9484 16.7795 51.7905 16.1761 51.4677 15.6586C51.0588 14.9685 50.3925 14.4691 49.6154 14.2702C48.8383 14.0713 48.014 14.1893 47.3239 14.5982C46.6337 15.0071 46.1343 15.6734 45.9355 16.4505C45.7366 17.2277 45.8546 18.0519 46.2635 18.7421C46.5623 19.262 47.0106 19.6799 47.5502 19.9415C48.5641 20.4204 49.4116 21.1918 49.9834 22.1564L50.05 22.2713C50.0654 22.2979 50.0734 22.328 50.0734 22.3587C50.0734 22.3894 50.0653 22.4195 50.0499 22.4461C50.0346 22.4726 50.0125 22.4947 49.9858 22.51C49.9592 22.5253 49.9291 22.5333 49.8984 22.5332C48.722 22.5218 47.5748 22.1655 46.5989 21.5085C46.0896 21.1752 45.4911 21.0045 44.8826 21.0191C44.0806 21.0279 43.3151 21.3549 42.7542 21.9282C42.1934 22.5016 41.8833 23.2742 41.8922 24.0761C41.901 24.878 42.2281 25.6436 42.8014 26.2044C43.3747 26.7653 44.1473 27.0753 44.9492 27.0665C45.5435 27.0672 46.1246 26.8921 46.6196 26.5633C47.5642 25.916 48.6798 25.5641 49.8249 25.5524H49.8984C49.9291 25.5523 49.9592 25.5603 49.9858 25.5756C50.0125 25.5909 50.0346 25.6129 50.0499 25.6395C50.0653 25.666 50.0734 25.6962 50.0734 25.7269C50.0734 25.7576 50.0654 25.7877 50.05 25.8143C49.452 26.8288 48.5692 27.6454 47.5111 28.1625C46.9682 28.4362 46.5217 28.869 46.2313 29.4032C45.849 30.1014 45.7575 30.9222 45.9765 31.6875C46.1956 32.4528 46.7076 33.1008 47.4014 33.491C48.0953 33.8811 48.915 33.982 49.6827 33.7716C50.4504 33.5612 51.1042 33.0566 51.5022 32.3672C51.7988 31.8551 51.9378 31.2669 51.902 30.6761C51.8149 29.5326 52.0674 28.3887 52.628 27.3882L52.6648 27.3261C52.68 27.2994 52.7021 27.2772 52.7287 27.2617C52.7554 27.2463 52.7856 27.2381 52.8164 27.2381C52.8472 27.2381 52.8775 27.2463 52.9041 27.2617C52.9307 27.2772 52.9528 27.2994 52.9681 27.3261C53.5442 28.3535 53.8092 29.5262 53.7309 30.7014C53.697 31.3361 53.8651 31.9651 54.2111 32.4982C54.6367 33.1666 55.3078 33.6413 56.0798 33.82C56.8519 33.9987 57.6632 33.8672 58.3393 33.4537C59.0153 33.0402 59.5021 32.3779 59.6947 31.6092C59.8873 30.8405 59.7705 30.0269 59.3694 29.3435C59.0712 28.824 58.6237 28.4061 58.085 28.1441C57.0694 27.6666 56.2209 26.8949 55.6494 25.9292L55.5851 25.8143C55.5699 25.7879 55.5618 25.7579 55.5617 25.7274C55.5616 25.6969 55.5695 25.667 55.5846 25.6405C55.5997 25.614 55.6215 25.5919 55.6478 25.5764C55.6741 25.561 55.704 25.5527 55.7345 25.5524C56.9161 25.5619 58.069 25.9182 59.05 26.5771C59.5593 26.9104 60.1578 27.0811 60.7663 27.0665C61.5683 27.0574 62.3338 26.73 62.8943 26.1565C63.4549 25.583 63.7647 24.8103 63.7556 24.0083C63.7465 23.2064 63.4191 22.4409 62.8456 21.8803C62.2721 21.3197 61.4994 21.0099 60.6974 21.0191H60.6928Z" fill="white"/>
<path d="M20.7226 71.3402V71.3218C20.712 70.8855 20.7898 70.4515 20.9515 70.0461C21.1131 69.6406 21.3551 69.2721 21.663 68.9627C21.9709 68.6533 22.3382 68.4095 22.7429 68.2459C23.1475 68.0823 23.5811 68.0024 24.0175 68.0109C24.8105 67.9846 25.5871 68.2402 26.2095 68.7323C26.2798 68.7842 26.3371 68.8516 26.377 68.9294C26.4169 69.0071 26.4382 69.093 26.4392 69.1804C26.4366 69.2829 26.4059 69.3828 26.3505 69.4691C26.2951 69.5555 26.217 69.6249 26.1248 69.6699C26.0326 69.715 25.9299 69.7338 25.8277 69.7245C25.7256 69.7151 25.6279 69.6779 25.5454 69.6169C25.1231 69.2473 24.5811 69.0432 24.0198 69.0425C22.8066 69.0425 21.9105 70.0466 21.9105 71.2965V71.3149C21.9105 72.5671 22.7974 73.5804 24.0198 73.5804C24.6148 73.5927 25.1914 73.3736 25.6282 72.9692C25.7209 72.886 25.8413 72.8401 25.9659 72.8406C26.1041 72.8417 26.2365 72.8965 26.3351 72.9934C26.4337 73.0903 26.4908 73.2217 26.4944 73.3598C26.4941 73.4359 26.4778 73.511 26.4466 73.5803C26.4153 73.6496 26.3697 73.7115 26.3129 73.7619C25.6819 74.3416 24.8485 74.6502 23.9922 74.6213C23.5599 74.6284 23.1306 74.5484 22.7299 74.3859C22.3292 74.2234 21.9654 73.9818 21.6602 73.6756C21.355 73.3693 21.1146 73.0046 20.9535 72.6034C20.7925 72.2021 20.7139 71.7725 20.7226 71.3402Z" fill="white"/>
<path d="M26.7287 71.3402V71.3218C26.7263 70.4358 27.0759 69.5851 27.7007 68.9568C28.3255 68.3286 29.1743 67.9743 30.0604 67.9718C30.9464 67.9694 31.7971 68.319 32.4253 68.9438C33.0536 69.5686 33.4079 70.4174 33.4103 71.3034V71.3218C33.4128 72.2079 33.0631 73.0586 32.4383 73.6868C31.8135 74.3151 30.9648 74.6694 30.0787 74.6718C29.1927 74.6742 28.342 74.3246 27.7137 73.6998C27.0855 73.075 26.7312 72.2262 26.7287 71.3402ZM32.2431 71.3402V71.3218C32.2431 70.0811 31.3379 69.0494 30.0695 69.0494C28.8012 69.0494 27.9143 70.0627 27.9143 71.3034V71.3218C27.9143 72.5649 28.8196 73.5873 30.0879 73.5873C31.3562 73.5873 32.2339 72.5832 32.2339 71.3402H32.2431Z" fill="white"/>
<path d="M34.0054 73.8056C33.9152 73.7406 33.8481 73.6487 33.8136 73.543C33.7791 73.4373 33.7791 73.3234 33.8137 73.2178C33.8482 73.1121 33.9155 73.0202 34.0057 72.9553C34.0959 72.8903 34.2045 72.8558 34.3156 72.8567C34.4335 72.8519 34.5494 72.8876 34.6442 72.9578C35.1449 73.3806 35.7787 73.6133 36.4341 73.6149C37.1234 73.6149 37.5668 73.2863 37.5668 72.8107V72.7923C37.5668 72.3328 37.3095 72.0892 36.1239 71.8158C34.7637 71.4873 33.9963 71.0852 33.9963 69.9088V69.8904C33.9963 68.7944 34.9153 68.0362 36.179 68.0362C36.8993 68.0214 37.6068 68.2284 38.2056 68.629C38.2822 68.6756 38.3452 68.7415 38.3883 68.8201C38.4315 68.8988 38.4532 68.9873 38.4514 69.077C38.4511 69.1459 38.4372 69.214 38.4104 69.2775C38.3836 69.341 38.3445 69.3985 38.2954 69.4468C38.2463 69.4951 38.1881 69.5331 38.1241 69.5588C38.0602 69.5845 37.9918 69.5972 37.923 69.5963C37.8201 69.5972 37.719 69.5694 37.6312 69.5159C37.1997 69.2124 36.688 69.0437 36.1607 69.0311C35.5035 69.0311 35.1198 69.3688 35.1198 69.7893V69.8077C35.1198 70.2994 35.4116 70.5199 36.6432 70.8117C37.9942 71.1403 38.6881 71.6228 38.6881 72.682V72.7004C38.6881 73.8975 37.7483 74.6098 36.4065 74.6098C35.5399 74.6106 34.6967 74.3282 34.0054 73.8056Z" fill="white"/>
<path d="M39.4716 68.6565C39.4713 68.5822 39.4857 68.5086 39.514 68.4398C39.5423 68.3711 39.5839 68.3087 39.6365 68.2562C39.689 68.2036 39.7514 68.162 39.8201 68.1337C39.8889 68.1054 39.9625 68.091 40.0368 68.0913H40.1563C40.2619 68.09 40.366 68.1172 40.4574 68.1702C40.5488 68.2232 40.6242 68.2999 40.6756 68.3923L42.6125 71.4229L44.5563 68.3831C44.6062 68.2922 44.6803 68.2168 44.7703 68.1653C44.8603 68.1138 44.9627 68.0882 45.0664 68.0913H45.1859C45.2602 68.091 45.3338 68.1054 45.4025 68.1337C45.4713 68.162 45.5337 68.2036 45.5862 68.2562C45.6388 68.3087 45.6804 68.3711 45.7087 68.4398C45.737 68.5086 45.7514 68.5822 45.7511 68.6565V74.0078C45.7514 74.0817 45.737 74.1549 45.7085 74.2231C45.6801 74.2913 45.6384 74.3531 45.5857 74.4049C45.533 74.4567 45.4705 74.4975 45.4018 74.5248C45.3332 74.5521 45.2598 74.5653 45.1859 74.5638C45.039 74.562 44.8986 74.5029 44.7947 74.399C44.6908 74.2951 44.6316 74.1547 44.6298 74.0078V70.173L43.0674 72.5189C43.0242 72.6066 42.9573 72.6804 42.8742 72.7321C42.7912 72.7837 42.6953 72.8111 42.5976 72.8111C42.4998 72.8111 42.4039 72.7837 42.3209 72.7321C42.2379 72.6804 42.1709 72.6066 42.1277 72.5189L40.5768 70.1913V74.0147C40.5771 74.0876 40.5628 74.1599 40.5347 74.2273C40.5067 74.2947 40.4654 74.3558 40.4134 74.4069C40.3613 74.4581 40.2996 74.4984 40.2318 74.5253C40.1639 74.5522 40.0914 74.5653 40.0184 74.5638C39.9461 74.5651 39.8742 74.5517 39.8072 74.5245C39.7401 74.4973 39.6792 74.4569 39.6281 74.4056C39.5771 74.3543 39.5369 74.2933 39.51 74.2261C39.4831 74.1589 39.47 74.087 39.4716 74.0147V68.6565Z" fill="white"/>
<path d="M46.8471 73.9526V68.7002C46.8458 68.6256 46.8596 68.5516 46.8876 68.4824C46.9155 68.4133 46.9571 68.3505 47.0099 68.2977C47.0626 68.245 47.1254 68.2034 47.1945 68.1755C47.2637 68.1475 47.3377 68.1337 47.4123 68.135H51.1276C51.1964 68.1303 51.2654 68.1398 51.3304 68.163C51.3953 68.1861 51.4548 68.2223 51.5052 68.2694C51.5556 68.3164 51.5957 68.3734 51.6232 68.4366C51.6506 68.4998 51.6648 68.5681 51.6648 68.637C51.6648 68.7059 51.6506 68.7741 51.6232 68.8374C51.5957 68.9006 51.5556 68.9576 51.5052 69.0046C51.4548 69.0517 51.3953 69.0879 51.3304 69.111C51.2654 69.1342 51.1964 69.1437 51.1276 69.139H47.9683V70.8003H50.7255C50.8598 70.8015 50.9881 70.8558 51.0824 70.9514C51.1767 71.047 51.2293 71.1761 51.2287 71.3103C51.2281 71.3758 51.2146 71.4405 51.189 71.5008C51.1634 71.561 51.1262 71.6157 51.0795 71.6615C51.0327 71.7074 50.9774 71.7436 50.9167 71.7681C50.856 71.7926 50.791 71.8049 50.7255 71.8043H47.9683V73.5253H51.1736C51.3063 73.5265 51.4332 73.5796 51.5273 73.6732C51.6213 73.7668 51.675 73.8935 51.6768 74.0262C51.6771 74.0923 51.6643 74.1579 51.6391 74.2191C51.6139 74.2803 51.5769 74.3359 51.5301 74.3827C51.4833 74.4294 51.4277 74.4665 51.3665 74.4917C51.3053 74.5169 51.2398 74.5297 51.1736 74.5294H47.4123C47.3368 74.5307 47.2617 74.5165 47.1918 74.4879C47.1219 74.4592 47.0585 74.4166 47.0056 74.3626C46.9527 74.3086 46.9114 74.2444 46.8841 74.174C46.8569 74.1035 46.8443 74.0282 46.8471 73.9526ZM48.9403 67.4526C48.9468 67.3803 48.9713 67.3108 49.0115 67.2504L49.5331 66.4485C49.5753 66.3686 49.6385 66.3016 49.7157 66.2547C49.793 66.2078 49.8815 66.1826 49.9719 66.1819C50.2637 66.1819 50.629 66.3658 50.629 66.5381C50.6237 66.5924 50.6071 66.645 50.5801 66.6925C50.5532 66.74 50.5167 66.7813 50.4728 66.8138L49.8593 67.3974C49.7752 67.4823 49.6738 67.5482 49.562 67.5906C49.4502 67.633 49.3307 67.651 49.2114 67.6433C49.046 67.6433 48.9403 67.5697 48.9403 67.4526Z" fill="white"/>
<path d="M53.9951 69.1597H52.4327C52.3007 69.1509 52.1769 69.0923 52.0865 68.9957C51.996 68.899 51.9457 68.7716 51.9457 68.6393C51.9457 68.5069 51.996 68.3796 52.0865 68.2829C52.1769 68.1863 52.3007 68.1276 52.4327 68.1189H56.6788C56.8108 68.1276 56.9346 68.1863 57.025 68.2829C57.1155 68.3796 57.1658 68.5069 57.1658 68.6393C57.1658 68.7716 57.1155 68.899 57.025 68.9957C56.9346 69.0923 56.8108 69.1509 56.6788 69.1597H55.1164V74.0078C55.1072 74.1518 55.0435 74.2868 54.9383 74.3855C54.8331 74.4843 54.6943 74.5392 54.55 74.5392C54.4057 74.5392 54.2669 74.4843 54.1617 74.3855C54.0565 74.2868 53.9928 74.1518 53.9836 74.0078L53.9951 69.1597Z" fill="white"/>
<path d="M57.846 68.6381C57.8551 68.4953 57.9183 68.3614 58.0227 68.2635C58.127 68.1656 58.2647 68.1111 58.4078 68.1111C58.5509 68.1111 58.6886 68.1656 58.7929 68.2635C58.8973 68.3614 58.9604 68.4953 58.9696 68.6381V74.0078C58.9604 74.1506 58.8973 74.2845 58.7929 74.3824C58.6886 74.4803 58.5509 74.5348 58.4078 74.5348C58.2647 74.5348 58.127 74.4803 58.0227 74.3824C57.9183 74.2845 57.8551 74.1506 57.846 74.0078V68.6381Z" fill="white"/>
<path d="M59.845 71.3402V71.3218C59.8343 70.8855 59.9122 70.4515 60.0738 70.0461C60.2354 69.6406 60.4775 69.2721 60.7853 68.9627C61.0932 68.6533 61.4605 68.4095 61.8652 68.2459C62.2699 68.0823 62.7034 68.0024 63.1398 68.0109C63.9328 67.9846 64.7095 68.2402 65.3318 68.7323C65.4021 68.7842 65.4595 68.8516 65.4993 68.9294C65.5392 69.0071 65.5605 69.093 65.5616 69.1804C65.559 69.2829 65.5283 69.3828 65.4728 69.4691C65.4174 69.5555 65.3393 69.6249 65.2472 69.6699C65.155 69.715 65.0522 69.7338 64.9501 69.7245C64.8479 69.7151 64.7503 69.6779 64.6678 69.6169C64.2454 69.2473 63.7034 69.0432 63.1421 69.0425C61.929 69.0425 61.0329 70.0466 61.0329 71.2965V71.3149C61.0329 72.5671 61.9198 73.5804 63.1421 73.5804C63.7332 73.5897 64.3052 73.3708 64.739 72.9692C64.8329 72.8864 64.9538 72.8407 65.0791 72.8406C65.1858 72.8404 65.2901 72.8729 65.3779 72.9336C65.4657 72.9944 65.5328 73.0805 65.5703 73.1805C65.6078 73.2805 65.6139 73.3895 65.5877 73.493C65.5615 73.5965 65.5043 73.6895 65.4237 73.7596C64.7939 74.3396 63.961 74.6483 63.1054 74.619C62.674 74.6249 62.2459 74.544 61.8464 74.3811C61.4469 74.2182 61.0843 73.9766 60.7801 73.6707C60.476 73.3648 60.2364 73.0008 60.0758 72.6005C59.9151 72.2001 59.8366 71.7715 59.845 71.3402Z" fill="white"/>
<path d="M65.8511 71.3402V71.3218C65.8486 70.4358 66.1983 69.5851 66.8231 68.9568C67.4479 68.3286 68.2967 67.9743 69.1827 67.9718C70.0687 67.9694 70.9194 68.319 71.5477 68.9438C72.1759 69.5686 72.5302 70.4174 72.5327 71.3034V71.3218C72.5339 71.7605 72.4487 72.1952 72.2819 72.601C72.1151 73.0068 71.8701 73.3757 71.5607 73.6868C70.9359 74.3151 70.0871 74.6694 69.2011 74.6718C68.7624 74.673 68.3277 74.5878 67.9219 74.421C67.5161 74.2542 67.1472 74.0092 66.8361 73.6998C66.2078 73.075 65.8535 72.2262 65.8511 71.3402ZM71.3655 71.3402V71.3218C71.3655 70.0811 70.4602 69.0494 69.1919 69.0494C67.9236 69.0494 67.0367 70.0627 67.0367 71.3034V71.3218C67.0367 72.5649 67.942 73.5873 69.2103 73.5873C70.4786 73.5873 71.3563 72.5832 71.3563 71.3402H71.3655Z" fill="white"/>
<path d="M73.1347 73.8056C73.0445 73.7406 72.9773 73.6487 72.9428 73.543C72.9083 73.4373 72.9084 73.3234 72.9429 73.2178C72.9774 73.1121 73.0447 73.0202 73.1349 72.9553C73.2252 72.8903 73.3337 72.8558 73.4449 72.8567C73.5627 72.8519 73.6786 72.8876 73.7734 72.9578C74.2741 73.3806 74.9079 73.6133 75.5633 73.6149C76.2526 73.6149 76.6961 73.2863 76.6961 72.8107V72.7923C76.6961 72.3328 76.4387 72.0893 75.2531 71.8158C73.8929 71.4873 73.1255 71.0852 73.1255 69.9088V69.8904C73.1255 68.7944 74.0446 68.0362 75.3083 68.0362C76.0285 68.0217 76.7359 68.2287 77.3348 68.629C77.4114 68.6756 77.4744 68.7415 77.5176 68.8201C77.5607 68.8988 77.5825 68.9874 77.5807 69.077C77.5804 69.1459 77.5664 69.214 77.5396 69.2775C77.5129 69.341 77.4738 69.3985 77.4246 69.4468C77.3755 69.4951 77.3173 69.5331 77.2534 69.5588C77.1894 69.5845 77.1211 69.5972 77.0522 69.5963C76.9486 69.5969 76.8469 69.5691 76.7581 69.5159C76.3276 69.2122 75.8165 69.0435 75.2899 69.0311C74.6327 69.0311 74.249 69.3688 74.249 69.7893V69.8077C74.249 70.2994 74.5408 70.5199 75.7724 70.8118C77.1234 71.1403 77.8173 71.6228 77.8173 72.682V72.7004C77.8173 73.8975 76.8776 74.6098 75.5357 74.6098C74.6691 74.6106 73.826 74.3282 73.1347 73.8056Z" fill="white"/>
</svg>
